<svg height="512" viewBox="0 0 54 60" width="512" xmlns="http://www.w3.org/2000/svg"><g id="Page-1" fill="none" fill-rule="evenodd"><g id="035---Sea-Mine" fill="rgb(0,0,0)" fill-rule="nonzero"><path id="Shape" d="m1 29c-.55228475 0-1 .4477153-1 1s.44771525 1 1 1h2.027c.11369723 2.9451299.77957516 5.8426996 1.963 8.542l-3.347 1.948c-.45863452.2667382-.79248847.7047817-.92808495 1.2177227s-.0618226 1.0587413.20508495 1.5172773l1.007 1.729c.55577767.9541127 1.7796123 1.2773053 2.734.722l3.389-1.976c1.36029565 1.7602191 2.958966 3.3225407 4.75 4.642l-2.07 3.732c-.5198885.9703529-.1634126 2.1783605.8 2.711 1.789.994 2.031 1.215 2.703 1.215.7341299.002776 1.411437-.3947155 1.767-1.037l2.045-3.7c1.9104696.7668194 3.9120583 1.2834344 5.955 1.537v4.2c0 1.1045695.8954305 2 2 2h2c1.1045695 0 2-.8954305 2-2v-4.2c2.0188574-.251608 3.9972426-.7604028 5.887-1.514l2.031 3.642c.5408818.9592474 1.7554481 1.3007743 2.717.764l1.755-.972c.9646936-.5374901 1.3111858-1.7551368.774-2.72l-2.019-3.618c1.8124456-1.3286281 3.4298293-2.9046095 4.805-4.682 3.46 2.014 3.666 2.245 4.392 2.245.7131262.0006579 1.3726542-.3784469 1.731-.995l1.006-1.728c.267225-.4586253.3411769-1.0046673.2055662-1.5178497s-.4696597-.9514084-.9285662-1.2181503l-3.336-1.938c1.177004-2.7030584 1.8393371-5.6019952 1.953-8.548h2.027c.5522847 0 1-.4477153 1-1s-.4477153-1-1-1h-2.027c-.1124871-2.9462594-.7773461-5.8451802-1.96-8.546l3.343-1.946c.4586345-.2667382.7924885-.7047817.9280849-1.2177227.1355965-.512941.0618227-1.0587413-.2050849-1.5172773l-1.006-1.728c-.5554362-.9544747-1.7793507-1.2781361-2.734-.723l-3.39 1.978c-1.3758764-1.7793443-2.9950523-3.3564419-4.81-4.685l2.027-3.667c.5264016-.96686165.1784754-2.17725279-.781-2.717l-1.766-.979c-.964154-.52125518-2.1682331-.16939652-2.7.789l-2.035 3.669c-1.8889025-.75223205-3.8662913-1.25968568-5.884-1.51v-4.2c0-1.1045695-.8954305-2-2-2h-2c-1.1045695 0-2 .8954305-2 2v4.2c-2.0488722.25576692-4.0559357.77610426-5.971 1.548l-2.048-3.668c-.5454379-.95474218-1.7543337-1.29785526-2.72-.772l-1.751.981c-.9594752.5412539-1.3006152 1.75648122-.763 2.718l2.039 3.66c-1.7845802 1.3184155-3.37804021 2.8775496-4.735 4.633l-3.39-1.973c-.95464932-.5551361-2.1785638-.2314747-2.734.723l-1.007 1.723c-.26690755.458536-.34068143 1.0043363-.20508495 1.5172773s.46945043.9509845.92808495 1.2177227l3.344 1.946c-1.18254079 2.7008572-1.84739477 5.5997562-1.96 8.546zm2.655 15.948-1.006-1.729 8.643-5.031c.4774502-.2783515 1.0901485-.1169502 1.3685.3605s.1169502 1.0901485-.3605 1.3685zm7.606-8.839c.7317312-.8897854 1.9175948-1.2671946 3.029-.964 1.347881.3574011 2.2697427 1.5990691 2.2219007 2.9927082-.0478421 1.3936391-1.0526834 2.5691657-2.4219007 2.8332918.8120267-.965136.9305651-2.3362235.2962325-3.4264056-.6343326-1.0901822-1.8849047-1.66464-3.1252325-1.4355944zm2.984 18.9-1.761-.97 1.982-3.575c.569.349 1.148.68 1.744.98zm9.944-8.022c-.4406794-1.2371828-.0206696-2.6170398 1.0345742-3.3988837 1.0552439-.781844 2.4976077-.781844 3.5528516 0 1.0552438.7818439 1.4752536 2.1617009 1.0345742 3.3988837-.4235244-1.1881673-1.5481972-1.981861-2.8095907-1.9827585s-2.3871946.7911951-2.8124093 1.9787585zm3.811 11.013h-2v-10c0-.5522847.4477153-1 1-1s1 .4477153 1 1zm13.415-4.024-1.751.977-1.941-3.479c.6-.3 1.18-.63 1.751-.978zm8.93-9.028-8.645-5.031c-.3088561-.1797046-.4983797-.5105312-.497179-.8678608.0012007-.3573295.1929432-.6868751.503-.8645.3100568-.177625.6913229-.1763438 1.000179.0033608l8.643 5.031zm-10.435-3.977c-1.2894443-.2431291-2.2687542-1.3000618-2.4130115-2.6042736-.1442573-1.3042117.5803936-2.5496175 1.785534-3.0686697 1.2051404-.5190521 2.6079363-.1899344 3.4564775.8109433-1.2403278-.2290456-2.4908999.3454122-3.1252325 1.4355944-.6343326 1.0901821-.5157942 2.4612696.2962325 3.4264056zm7.372-2.435-1.846-1.075c-.2505302-2.137392-1.8405833-3.8747082-3.9474857-4.313083-2.1069024-.4383747-4.2579506.5205456-5.3402192 2.3806275-1.0822685 1.8600819-.8529403 4.2039985.5693331 5.8190366 1.4222735 1.6150382 3.7183917 2.1388488 5.7003718 1.3004189l1.791 1.042c-3.5130609 4.4332414-8.6045307 7.3360492-14.209 8.101v-1.8c1.7217216-1.2912912 2.4239867-3.5394281 1.7434165-5.5811388s-2.5912645-3.4188612-4.7434165-3.4188612-4.0628463 1.3771505-4.7434165 3.4188612.0216949 4.2898476 1.7434165 5.5811388v1.8c-5.6044536-.7642956-10.69604-3.6668116-14.209-8.1l1.791-1.042c1.9820514.8385167 4.2782908.3146717 5.7005818-1.3004834 1.4222911-1.6151552 1.6514984-3.95921.5690239-5.8192871s-3.2337439-2.8188102-5.3406832-2.3801248c-2.1069392.4386854-3.69679081 2.1763565-3.9469225 4.3138953l-1.837 1.068c-1.01490679-2.3876869-1.59079374-4.9388661-1.7-7.531h43.946c-.1079221 2.5929835-.6806813 5.1455049-1.691 7.536zm3.063-23.485 1.006 1.728-8.643 5.031c-.4774502.2783515-1.0901485.1169502-1.3685-.3605s-.1169502-1.0901485.3605-1.3685zm-7.595 8.824c-.8442718 1.0084103-2.2491999 1.3451745-3.458893.8291039-1.2096931-.5160705-1.9388797-1.7632754-1.7952367-3.0705829.1436431-1.3073075 1.1262416-2.3664265 2.4191297-2.607521-.8188151.9631034-.9398355 2.3383995-.3017995 3.4296999.638036 1.0913003 1.8958802 1.6604341 3.1367995 1.4193001zm-3.085-18.875 1.75.972-1.948 3.528c-.57-.348-1.15-.678-1.748-.976zm-9.854 8.011c.4406794 1.2371828.0206696 2.6170398-1.0345742 3.3988837-1.0552439.781844-2.4976077.781844-3.5528516 0-1.0552438-.7818439-1.4752536-2.1617009-1.0345742-3.3988837.4235244 1.1881673 1.5481972 1.981861 2.8095907 1.9827585s2.3871946-.7911951 2.8124093-1.9787585zm-3.811-11.011h2v10c0 .5522847-.4477153 1-1 1s-1-.4477153-1-1zm-13.511 4.033 1.748-.975 1.963 3.509c-.6.3-1.176.632-1.745.982zm-8.834 9.018 8.643 5.03c.4774502.2777992.6392992.8900498.3615 1.3675s-.8900498.6392992-1.3675.3615l-8.643-5.031zm10.43 3.975c1.3692173.2641261 2.3740586 1.4396527 2.4219007 2.8332918.047842 1.3936391-.8740197 2.6353071-2.2219007 2.9927082-1.1174175.3060358-2.310094-.0772684-3.04-.977 1.2414197.2426385 2.5006222-.3256994 3.1398899-1.4171815s.5190017-2.4677578-.2998899-3.4318185zm-7.361 2.439 1.84 1.071c.25013169 2.1375388 1.8399833 3.8752099 3.9469225 4.3138953 2.1069393.4386854 4.2582087-.5200477 5.3406832-2.3801248s.8532672-4.2041319-.5690239-5.8192871c-1.422291-1.6151551-3.7185304-2.1390001-5.7005818-1.3004834l-1.79-1.041c3.5123057-4.4334478 8.6037029-7.33606019 14.208-8.1v1.8c-1.7217216 1.2912912-2.4239867 3.5394281-1.7434165 5.5811388s2.5912645 3.4188612 4.7434165 3.4188612 4.0628463-1.3771505 4.7434165-3.4188612-.0216949-4.2898476-1.7434165-5.5811388v-1.8c5.6042971.76393981 10.6956943 3.6665522 14.208 8.1l-1.79 1.042c-1.9821226-.8386034-4.2784832-.314724-5.7007918 1.3005482-1.4223085 1.6152722-1.6513949 3.9594652-.5687144 5.8195375 1.0826804 1.8600723 3.234171 2.8186181 5.341147 2.3796219 2.1069761-.4389961 3.6966261-2.1770221 3.9463592-4.3147076l1.84-1.071c1.0145752 2.3890546 1.5894633 4.9416661 1.697 7.535h-43.946c.10812493-2.593256.68298959-5.1457635 1.697-7.535z"/></g></g></svg>